<svg xmlns="http://www.w3.org/2000/svg" xmlns:xlink="http://www.w3.org/1999/xlink" width="1080" zoomAndPan="magnify" viewBox="0 0 810 809.999993" height="1080" preserveAspectRatio="xMidYMid meet" version="1.0"><path stroke-linecap="butt" transform="matrix(0.81, 0, 0, 0.81, 0.0000035, 0.00002)" fill-opacity="1" fill="#0ca6df" fill-rule="nonzero" stroke-linejoin="miter" d="M -0.00000432099 -0.0000246914 L 999.999987 -0.0000246914 L 999.999987 999.999966 L -0.00000432099 999.999966 Z M 563.999798 236.99843 L 563.001534 238.001516 L 544.000762 238.99978 L 527.001341 242.997658 L 508.998834 249.999973 L 499.001727 255.999201 L 477.001342 244.999009 L 449.001728 238.001516 L 419.000764 238.001516 L 399.001728 241.999394 C 381.66473 247.333114 367.332168 255.000938 355.999221 264.998044 C 346.667624 272.998623 338.667045 282.335042 332.002308 292.997658 L 324.999993 299.001709 L 288.001536 311.000165 L 263.001537 325.998236 C 251.668589 334.664324 242.997679 346.002094 236.99845 360.001901 L 233.000572 372.998622 L 230.000958 388.999779 L 228.997872 402.999586 L 227.001344 408.00055 L 216.001151 417.997657 C 199.999994 430.666445 188.001537 447.000357 180.000959 466.999392 L 172.00038 492.997656 L 171.002116 503.997849 L 169.99903 505.000935 L 169.99903 513.999778 L 169.000766 514.998042 L 169.99903 547.000356 L 174.999994 571.002092 C 181.664732 592.332146 191.666661 610.334653 205.000958 624.99997 C 215.668397 636.332917 228.332362 646.334846 242.997679 655.000934 L 271.002115 667.997655 L 291.999414 674.001705 L 303.997871 675.998233 L 308.000572 677.999583 L 327.001343 705.999197 C 338.33429 718.667986 352.001343 729.335424 367.997678 738.001512 L 391.999413 747.000354 L 408.998835 749.999969 L 433.998834 749.999969 L 450.998256 747.000354 C 469.666272 741.001126 486.000184 732.335038 499.999991 721.002091 L 525.998255 736.998426 L 538.999798 742.997654 L 561.000184 749.001705 L 580.000955 749.999969 L 580.999219 750.998232 L 610.001919 749.001705 L 636.000183 741.99939 C 652.00134 735.334652 666.333902 726.668564 678.997868 716.001126 C 688.334287 706.664707 696.667621 696.334846 703.997867 685.001898 L 719.000761 652.00132 L 724.001725 647.998619 C 739.332551 644.66625 752.999603 639.332531 764.99806 632.002284 L 786.998445 614.998041 C 797.665884 605.000934 805.999217 592.997655 811.998445 578.997848 L 819.999024 553.997848 L 821.00211 542.997656 L 822.000374 541.999392 L 822.000374 532.002285 L 822.998638 530.999199 L 822.000374 510.0019 L 819.999024 502.999585 L 819.999024 497.998621 L 813.999795 477.999585 C 810.667427 467.997656 805.999217 459.664323 799.999989 452.999585 L 772.998638 424.001708 L 771.002111 416.001129 L 771.002111 399.999972 L 766.99941 378.99785 C 762.3312 363.001515 755.333708 349.667218 746.002111 338.999779 C 738.001532 329.668182 728.665113 321.667604 717.997674 314.998043 L 702.00134 307.002287 L 672.998639 297.000358 L 657.002305 277.001323 C 645.664535 263.001516 631.331973 252.334078 613.999797 244.999009 L 591.999412 238.99978 Z M 563.999798 236.99843 " stroke="#000000" stroke-width="1" stroke-opacity="1" stroke-miterlimit="4"/><path stroke-linecap="butt" transform="matrix(0.81, 0, 0, 0.81, 0.0000035, 0.00002)" fill-opacity="1" fill="#0ca6df" fill-rule="nonzero" stroke-linejoin="miter" d="M 422.501921 286.99843 C 446.368626 285.199626 462.533749 291.034888 471.002113 304.499394 L 474.999991 314.501323 L 474.999991 668.499198 C 472.333132 677.49804 467.500956 684.331566 460.498641 688.999776 C 454.499413 694.000741 447.164344 697.665864 438.498256 699.999969 L 429.499413 702.001319 L 411.501728 702.001319 L 389.501343 694.999005 C 379.832168 689.665285 371.667624 682.831759 364.998063 674.498426 L 355.000957 656.500741 L 349.999993 633.502092 L 345.500571 628.997848 L 306.500765 627.999584 L 285.498643 622.998619 C 265.702154 615.798581 249.864963 604.634422 238.001537 589.50132 C 231.134253 581.032956 225.800534 571.031027 222.000379 559.500356 L 216.999415 535.49862 L 216.999415 517.500935 L 219.999029 500.501514 L 227.999608 480.497656 C 233.198296 471.368605 239.699068 463.531993 247.501922 457.002286 L 262.499993 446.002093 L 275.501536 439.998042 L 278.997871 436.501708 C 281.602038 433.767333 282.600302 429.431877 282.002308 423.500164 L 280.999222 422.501901 L 280.999222 411.501708 L 280.000958 410.498621 L 280.000958 394.502287 C 282.600302 379.431878 289.101073 368.267719 299.49845 361.000165 C 306.16801 355.999201 314.168589 352.334077 323.500186 349.999972 L 337.499993 347.000358 L 360.498642 344.999008 L 363.9998 342.500937 C 367.534715 325.699239 375.03375 312.866485 386.501728 303.997851 C 395.833325 295.664517 407.831782 289.998044 422.501921 286.99843 Z M 419.000764 383.000551 L 413.999799 383.998814 L 407.002307 388.001515 C 400.332747 396.002094 392.664923 402.999586 383.998835 408.998814 L 364.998063 416.999393 C 356.331976 418.335234 349.667238 417.664902 344.999028 414.998043 L 335.001922 414.998043 L 324.999993 419.999007 C 319.666274 424.001708 316.333905 430.000936 314.998064 438.001515 C 314.998064 446.002093 316.66666 452.334076 319.999028 457.002286 L 332.002308 464.998042 L 347.000378 467.997656 L 369.000764 467.997656 L 388.001535 463.001514 C 402.666852 457.002286 415.668395 449.001707 427.001342 438.999778 L 441.999413 422.998621 L 446.002114 413.001515 L 446.002114 402.999586 L 441.001149 392.997657 C 436.998449 386.332919 429.668202 383.000551 419.000764 383.000551 Z M 274.001729 521.002093 L 266.999415 524.001707 L 258.998836 532.002285 L 255.000958 544.000742 C 255.000958 551.330989 256.664731 557.33504 260.001922 561.998427 L 267.997678 567.997655 L 278.997871 571.002092 L 367.997678 572.99862 L 377.001343 574.99997 L 380.000957 577.00132 L 386.998449 586.998427 L 389.998063 602.999584 L 394.999028 613.999777 C 397.665887 617.332146 402.001342 619.666251 408.000571 621.002092 C 416.001149 622.33311 422.000378 621.334846 425.998256 617.997655 C 432.002307 613.999777 435.66743 608.000549 436.998449 599.99997 C 435.66743 574.667216 428.99787 555.000935 416.999413 541.001128 C 408.998835 532.33504 398.331396 526.668566 385.001921 524.001707 L 361.000185 522.99862 L 360.001921 522.000356 Z M 558.502113 286.99843 L 577.498061 286.99843 L 592.500955 291.00113 C 604.166657 295.664517 613.667043 302.498044 621.002112 311.501709 C 627.26658 319.232226 631.602035 328.9014 633.998833 340.499586 L 637.49999 344.000744 L 643.499218 346.002094 L 664.50134 347.000358 L 681.500761 352.001322 C 693.166463 357.002287 702.666849 364.168568 710.001918 373.500165 C 718.532975 383.034308 722.535676 397.034115 722.000375 415.499586 L 719.000761 430.497657 L 719.000761 443.4992 C 719.931509 447.564593 722.101648 450.400241 725.501532 452.001322 C 739.366309 458.468335 750.868045 467.298389 760.001918 478.501128 C 765.866115 485.633652 770.201571 494.299739 772.998638 504.499392 L 774.999989 514.501321 L 774.999989 536.501707 C 771.334865 558.164515 762.167234 574.334461 747.501918 585.001899 C 740.432088 591.266367 731.100491 595.269067 719.502304 597.000356 L 716.001147 594.502285 C 711.135213 578.033342 702.965846 564.867833 691.497868 555.000935 L 680.999218 547.99862 L 680.999218 543.499199 L 683.998832 536.501707 L 688.001533 517.500935 L 688.001533 495.50055 L 683.998832 475.501514 L 677.00134 459.500357 C 672.400646 451.765018 666.565383 445.269069 659.500376 439.998042 C 652.165306 434.331569 643.499218 430.000936 633.502112 427.001322 L 617.500955 424.001708 L 597.501919 424.001708 L 580.497676 427.001322 L 569.000762 436.501708 C 566.468934 440.301862 565.133092 445.298004 564.998062 451.499778 L 567.997676 461.501707 L 573.500183 467.997656 L 585.49864 474.001707 L 596.498833 474.001707 L 597.501919 472.998621 L 616.497868 472.998621 C 623.234944 474.599701 628.399874 477.768104 632.002305 482.499006 C 638.131742 490.364554 640.465846 502.035079 638.999797 517.500935 C 635.532397 532.368798 628.366117 543.532957 617.500955 550.998234 L 581.500762 575.998234 L 572.99864 584.500356 C 569.333517 588.830989 567.332167 594.835039 566.999412 602.498041 L 569.999026 612.49997 L 575.501534 619.000741 C 579.832166 623.668951 587.167236 625.332724 597.501919 624.001706 L 613.498254 616.001127 C 626.234558 608.400819 637.90026 599.734731 648.500183 589.998041 L 652.498061 588.999777 C 657.301302 590.200587 660.797636 592.698658 663.001533 596.498813 C 668.600491 604.234152 671.267351 614.90159 671.002112 628.501127 L 667.997675 645.500548 L 660.001919 663.498233 C 655.531433 671.031026 650.033748 677.531798 643.499218 683.000548 C 634.6981 690.533341 624.035484 696.199815 611.501726 699.999969 L 596.498833 702.999583 L 576.499798 702.999583 L 553.501148 697.000355 C 544.43479 693.397924 536.935755 688.232994 530.999219 681.500741 L 524.999991 671.498812 L 522.998641 662.499969 L 522.998641 319.502287 L 525.998255 308.502094 L 535.498641 297.000358 C 541.497869 291.999394 549.165693 288.667025 558.502113 286.99843 Z M 558.502113 286.99843 " stroke="#000000" stroke-width="1" stroke-opacity="1" stroke-miterlimit="4"/><path stroke-linecap="butt" transform="matrix(0.81, 0, 0, 0.81, 0.0000035, 0.00002)" fill-opacity="1" fill="#ffffff" fill-rule="nonzero" stroke-linejoin="miter" d="M 563.498255 236.99843 L 591.497868 238.99978 L 613.498254 244.999009 C 631.298215 252.199047 645.799566 262.697697 657.002305 276.49978 L 672.501919 297.000358 L 701.499796 307.002287 L 717.500954 314.998043 C 728.2986 321.532573 737.798986 329.364363 746.002111 338.498236 C 755.401223 349.430914 762.398716 362.765211 766.99941 378.501129 L 771.002111 399.498429 L 771.002111 415.499586 L 772.998638 423.500164 L 799.999989 452.498042 C 805.666462 459.833112 810.334672 468.166445 813.999795 477.498042 L 819.999024 497.5019 L 819.999024 502.498042 L 822.000374 509.500357 L 822.998638 530.497656 L 822.000374 531.500742 L 822.000374 541.497849 L 821.00211 542.500935 L 819.999024 553.501128 L 811.998445 578.501128 C 805.869009 593.031413 797.366887 605.198658 786.501725 614.998041 L 764.501339 632.002284 C 752.565575 639.067292 738.898523 644.401011 723.500182 647.998619 L 719.000761 651.499777 L 703.997867 684.500355 C 696.797829 696.301088 688.30053 706.799738 678.501147 716.001126 C 666.435175 726.933804 652.097791 735.599892 635.49864 741.99939 L 609.500376 749.001705 L 580.497676 750.998232 L 579.499412 749.999969 L 560.49864 749.001705 L 538.498255 742.997654 L 525.501534 736.998426 L 499.498448 721.002091 C 485.566156 732.064976 469.232245 740.731064 450.501535 747.000354 L 433.502114 749.999969 L 408.502114 749.999969 L 391.49787 747.000354 L 367.500957 738.001512 C 351.567315 729.600663 338.069051 718.764436 327.001343 705.497654 L 307.499028 677.999583 L 303.50115 675.998233 L 291.497871 674.001705 L 270.500572 667.997655 L 242.500958 655.000934 C 228.168396 646.667601 215.668397 636.501706 205.000958 624.498427 C 191.53163 609.968141 181.534523 591.965634 174.999994 570.500549 L 169.99903 546.498813 L 169.000766 514.501321 L 169.99903 513.498235 L 169.99903 504.499392 L 171.002116 503.501128 L 172.00038 492.500935 L 180.000959 466.497849 C 188.266776 446.768876 200.101267 430.59893 215.499608 417.997657 L 227.001344 407.499007 L 228.997872 402.498043 L 230.000958 388.498236 L 233.000572 372.501901 L 236.99845 359.500358 C 242.86747 345.698275 251.36477 334.534116 262.499993 325.998236 L 287.499993 311.000165 L 324.49845 299.001709 L 332.002308 292.500937 C 338.401806 281.901014 346.233596 272.733383 355.497678 264.998044 C 367.298411 254.798391 381.630972 247.13539 398.500185 241.999394 L 418.49922 238.001516 L 448.500185 238.001516 L 476.499799 244.999009 L 498.500184 255.999201 L 508.502113 249.999973 L 526.499798 242.997658 L 543.499219 238.99978 L 562.499991 238.001516 Z M 422.998642 286.99843 C 408.333325 290.335621 396.334869 296.002095 386.998449 303.997851 C 374.999992 312.668761 367.332168 325.665482 363.9998 342.997657 L 361.000185 344.999008 L 338.001536 347.000358 L 324.001729 349.999972 C 314.665309 352.666832 306.664731 356.331955 299.999993 361.000165 C 289.332555 368.335234 282.667817 379.668182 280.000958 394.999007 L 280.000958 411.000165 L 280.999222 411.998428 L 280.999222 422.998621 L 282.002308 424.001708 C 282.667817 429.335427 281.664731 433.666059 278.997871 436.998428 L 275.998257 439.998042 L 263.001537 446.002093 L 247.998643 457.002286 C 239.998065 463.667024 233.333327 471.667602 227.999608 480.999199 L 219.999029 500.998235 L 216.999415 517.997656 L 216.999415 536.000163 L 222.000379 560.001899 C 225.998258 571.334847 231.331977 581.331953 238.001537 589.998041 C 249.999993 604.66818 266.001151 615.668373 286.000186 622.998619 L 307.002308 627.999584 L 346.002114 628.997848 L 349.999993 633.998812 L 355.000957 657.002284 L 364.998063 674.999969 C 371.667624 683.000548 380.000957 689.665285 389.998063 694.999005 L 411.998449 702.001319 L 430.000956 702.001319 L 438.999799 699.999969 C 447.665887 697.998619 455.000956 694.333495 461.000184 688.999776 C 467.664922 684.331566 472.333132 677.666829 474.999991 669.000741 L 474.999991 314.998043 L 471.002113 305.000937 C 462.331203 291.00113 446.334868 285.001902 422.998642 286.99843 Z M 558.998833 286.99843 C 549.001727 288.334271 541.333903 291.666639 536.000184 297.000358 L 525.998255 308.998815 L 522.998641 319.999008 L 522.998641 663.001513 L 524.999991 672.000355 L 530.999219 682.002284 C 536.998448 688.667022 544.666272 693.667986 553.997869 697.000355 L 577.001341 702.999583 L 597.000376 702.999583 L 611.998447 699.999969 C 624.001726 696.002091 634.664342 690.335617 644.000762 683.000548 C 649.99999 677.666829 655.333709 671.334846 660.001919 663.999776 L 667.997675 646.002091 L 671.002112 628.997848 C 671.002112 614.998041 668.335252 604.335425 663.001533 597.000356 C 661.000183 592.997655 657.667814 590.335618 652.999604 588.999777 L 649.001726 589.998041 C 638.334288 599.99997 626.668586 608.666058 613.999797 616.001127 L 597.99864 624.001706 C 587.331202 625.332724 580.000955 623.668951 575.998254 619.000741 L 569.999026 613.001513 L 566.999412 602.999584 C 566.999412 594.999005 569.000762 588.999777 572.99864 585.001899 L 582.002305 575.998234 L 617.997675 550.998234 C 628.665114 543.667987 635.667428 532.667795 638.999797 517.997656 C 640.335638 502.001321 638.001533 490.335619 632.002305 483.00055 C 628.665114 477.666831 623.668972 474.334462 616.999411 472.998621 L 597.99864 472.998621 L 597.000376 474.001707 L 586.000183 474.001707 L 574.001727 467.997656 L 567.997676 461.998428 L 564.998062 452.001322 C 564.998062 445.331761 566.333903 440.33562 569.000762 436.998428 L 580.999219 427.001322 L 597.99864 424.001708 L 617.997675 424.001708 L 633.998833 427.001322 C 644.000762 429.668181 652.666849 433.998814 660.001919 439.998042 C 666.666656 445.331761 672.33313 452.001322 677.00134 460.0019 L 683.998832 475.998235 L 688.001533 496.002093 L 688.001533 517.997656 L 683.998832 536.998427 L 680.999218 544.000742 L 680.999218 547.99862 L 691.999411 555.000935 C 703.332358 564.998041 711.332937 578.332339 716.001147 594.999005 L 719.999025 597.000356 C 731.331972 594.999005 740.668392 591.001127 747.998639 585.001899 C 761.998446 574.334461 771.002111 558.333304 774.999989 536.998427 L 774.999989 514.998042 L 772.998638 505.000935 C 770.331779 494.333497 766.001146 485.667409 760.001918 478.997849 C 750.665498 467.664902 739.332551 458.666059 725.998253 452.001322 C 722.000375 450.665481 719.66627 447.998621 719.000761 444.000743 L 719.000761 430.9992 L 722.000375 416.001129 C 722.665884 397.333112 718.668006 383.333305 710.001918 374.001708 C 702.666849 364.665288 693.335252 357.335042 682.002304 352.001322 L 664.998061 347.000358 L 644.000762 346.002094 L 638.001533 344.000744 L 633.998833 341.00113 C 631.331973 328.99785 627.00134 319.333499 621.002112 311.998429 C 613.667043 302.666832 604.335446 295.664517 592.997676 291.00113 L 577.999605 286.99843 Z M 558.998833 286.99843 " stroke="#ffffff" stroke-width="1" stroke-opacity="1" stroke-miterlimit="4"/><path stroke-linecap="butt" transform="matrix(0.81, 0, 0, 0.81, 0.0000035, 0.00002)" fill-opacity="1" fill="#ffffff" fill-rule="nonzero" stroke-linejoin="miter" d="M 418.49922 383.000551 C 429.301689 382.86552 436.800725 386.033922 441.001149 392.500936 L 446.002114 402.498043 L 446.002114 412.499972 L 441.999413 422.501901 L 426.499799 438.999778 C 415.234367 448.731646 402.232824 456.732224 387.499992 463.001514 L 368.499221 467.997656 L 346.498835 467.997656 L 331.500764 464.998042 L 319.999028 456.500743 C 316.333905 452.165288 314.665309 445.833305 314.998064 437.499971 C 316.468936 429.967178 319.632516 424.131916 324.49845 419.999007 L 334.500378 414.998043 L 344.502307 414.998043 C 349.368241 417.467178 356.032979 418.132688 364.501343 416.999393 L 383.502114 408.998814 C 392.365926 403.202132 400.03375 396.199817 406.500764 388.001515 L 413.498256 383.998814 Z M 273.500186 521.002093 L 359.500378 522.000356 L 360.498642 522.99862 L 384.500378 524.001707 C 397.964884 526.86629 408.801111 532.368798 416.999413 540.499585 C 429.267932 554.566907 435.932669 574.233188 436.998449 599.498427 C 435.532399 608.034306 431.698487 614.202323 425.501535 617.997655 C 421.633865 621.064785 415.634637 622.067871 407.499028 621.002092 C 402.0351 619.801281 397.868433 617.298388 394.999028 613.498234 L 389.998063 602.498041 L 386.998449 586.501706 L 379.499414 577.00132 L 376.499799 574.99997 L 367.500957 572.99862 L 278.501151 571.002092 L 267.500958 567.997655 L 260.001922 561.501706 C 256.467007 557.368797 254.798412 551.364747 255.000958 543.499199 L 258.998836 531.500742 L 266.497871 524.001707 Z M 273.500186 521.002093 " stroke="#ffffff" stroke-width="1" stroke-opacity="1" stroke-miterlimit="4"/></svg>